<svg width="77" height="95" viewBox="0 0 77 95" fill="none" xmlns="http://www.w3.org/2000/svg">
<path d="M57.2 0C46.2654 0 37.4 8.73112 37.4 19.5C37.4 30.2689 46.2654 39 57.2 39C68.1345 39 77 30.2689 77 19.5C77 8.73112 68.1345 0 57.2 0ZM54.131 28.498L45.0205 19.5244L48.5202 16.0778L54.1298 21.6048L66.0308 9.88406L69.5304 13.3307L54.131 28.498Z" fill="#E39A3B"/>
<path d="M61.6598 74.4616H18.223C16.907 74.4616 15.8362 73.2759 15.8362 71.8187C15.8362 70.3615 16.907 69.1758 18.223 69.1758H30.8052C31.3716 69.1758 31.8306 68.6688 31.8306 68.0431C31.8306 67.4174 31.3716 66.9104 30.8052 66.9104H18.223C15.7762 66.9104 13.7854 69.1122 13.7854 71.8187C13.7854 74.5252 15.7762 76.727 18.223 76.727H61.6598C62.2293 76.727 62.7131 77.2098 62.7384 77.8033C62.7519 78.1182 62.6516 78.4165 62.4562 78.6427C62.2614 78.8682 61.9992 78.9924 61.7178 78.9924H18.1608C16.901 78.9924 15.6801 78.5924 14.6299 77.8357C14.1555 77.4937 13.5203 77.6413 13.2109 78.1655C12.9014 78.6894 13.0351 79.3912 13.5095 79.733C14.8938 80.7305 16.5022 81.2579 18.1608 81.2579H18.8121C19.0885 83.1733 20.0537 84.8373 21.4173 85.9315C20.7862 86.8867 20.4394 88.043 20.4394 89.2622C20.4394 92.3851 22.7392 94.9256 25.5663 94.9256C28.3934 94.9256 30.6932 92.3851 30.6932 89.2622C30.6932 88.0451 30.3456 86.8882 29.7143 85.9322C31.0785 84.8381 32.0442 83.1738 32.3205 81.2579H47.5229C47.7992 83.1736 48.7647 84.8378 50.1287 85.9319C49.4975 86.8878 49.1502 88.0443 49.1502 89.2622C49.1502 92.3851 51.4501 94.9256 54.2772 94.9256C57.1042 94.9256 59.4041 92.3851 59.4041 89.2622C59.4041 88.044 59.0569 86.8875 58.4258 85.9318C59.7897 84.8376 60.7552 83.1735 61.0315 81.2579H61.7178C62.553 81.2579 63.3631 80.8747 63.9402 80.2066C64.5263 79.5279 64.827 78.6365 64.7871 77.697C64.7096 75.8826 63.336 74.4616 61.6598 74.4616ZM28.6425 89.262C28.6425 91.1356 27.2624 92.6601 25.5663 92.6601C23.8702 92.6601 22.4901 91.1356 22.4901 89.262C22.4901 88.4027 22.7771 87.595 23.2912 86.974C23.9022 87.1848 24.5516 87.2987 25.2245 87.2987H25.9081C26.5809 87.2987 27.23 87.185 27.8408 86.9743C28.3547 87.5958 28.6425 88.4041 28.6425 89.262ZM25.9081 85.0333H25.2245C23.1274 85.0333 21.3662 83.4196 20.9019 81.2577H30.2307C29.7664 83.4198 28.0052 85.0333 25.9081 85.0333ZM57.3533 89.262C57.3533 91.1356 55.9733 92.6601 54.2772 92.6601C52.581 92.6601 51.201 91.1356 51.201 89.262C51.201 88.4036 51.4884 87.5955 52.0025 86.9742C52.6133 87.185 53.2626 87.2987 53.9354 87.2987H54.619C55.2919 87.2987 55.9412 87.185 56.552 86.9742C57.0661 87.5955 57.3533 88.4034 57.3533 89.262ZM54.619 85.0333H53.9354C51.8383 85.0333 50.077 83.4196 49.6128 81.2577H58.9416C58.4773 83.4198 56.7161 85.0333 54.619 85.0333Z" fill="#E39A3B"/>
<path d="M69.799 32.634C69.6055 32.3453 69.2997 32.1748 68.9744 32.1748C66.9598 32.1748 62.593 32.1748 57.1804 32.1748C42.8031 32.1748 21.047 32.1748 16.3966 32.1748L15.0124 27.3048C14.608 25.8817 13.43 24.9256 12.0811 24.9256H3.07275C1.37839 24.9256 0 26.45 0 28.3236C0 30.1973 1.37839 31.7217 3.07275 31.7217H9.82595L12.0546 39.5621C12.2241 40.1588 12.7993 40.4912 13.34 40.3034C13.8802 40.1161 14.1807 39.4803 14.011 38.8834L11.5569 30.2497C11.4228 29.7776 11.0266 29.4563 10.5787 29.4563H3.07275C2.50933 29.4563 2.05078 28.9483 2.05078 28.3236C2.05078 27.699 2.50933 27.191 3.07275 27.191H12.0811C12.5294 27.191 12.9213 27.5093 13.0559 27.9834L22.8329 62.3797H20.69L15.4284 43.8695C15.2589 43.2728 14.6836 42.9404 14.143 43.1283C13.6028 43.3155 13.3023 43.9514 13.472 44.5482L18.5407 62.3797H18.161C13.4562 62.3797 9.62867 66.6139 9.62867 71.8187C9.62867 72.947 9.80709 74.0511 10.159 75.1008C10.3121 75.5576 10.704 75.8403 11.1207 75.8403C11.2389 75.8403 11.3593 75.8177 11.4767 75.7695C12.0078 75.5523 12.2788 74.9005 12.0822 74.3139C11.8151 73.517 11.6796 72.6773 11.6796 71.8186C11.6796 67.8631 14.5873 64.6449 18.1611 64.6449H46.6463C47.2158 64.6449 47.6995 65.1277 47.7248 65.7212C47.7384 66.0363 47.638 66.3344 47.4427 66.5606C47.2478 66.7861 46.9857 66.9103 46.7044 66.9103H35.5909C35.0245 66.9103 34.5656 67.4172 34.5656 68.0429C34.5656 68.6686 35.0245 69.1756 35.5909 69.1756H46.7044C47.5395 69.1756 48.3495 68.7925 48.9265 68.1243C49.5127 67.4456 49.8135 66.5543 49.7736 65.6149C49.7591 65.2756 49.6992 64.95 49.6006 64.6449H58.5687C60.2313 64.6449 61.676 63.4651 62.1634 61.7093L69.9553 33.6396C70.0501 33.2961 69.9923 32.9229 69.799 32.634ZM62.6266 52.3113H56.273L57.5798 44.5085H64.7926L62.6266 52.3113ZM54.1874 52.3113H47.7612L48.2061 44.5085H55.4941L54.1874 52.3113ZM47.1873 62.3797L47.6321 54.5767H53.808L52.5011 62.3797H47.1873ZM39.5876 62.3797L39.1366 54.5767H45.5773L45.1324 62.3797H39.5876ZM32.2634 62.3797L30.9386 54.5767H37.0819L37.5329 62.3797H32.2634ZM19.9025 44.5085H27.1427L28.4675 52.3113H22.1205L19.9025 44.5085ZM29.229 44.5085H36.4997L36.9508 52.3113H30.5538L29.229 44.5085ZM35.9178 34.4401L36.3689 42.2431H28.8444L27.5196 34.4401H35.9178ZM38.4236 42.2431L37.9726 34.4401H46.7252L46.2803 42.2431H38.4236ZM46.1512 44.5085L45.7063 52.3113H39.0056L38.5546 44.5085H46.1512ZM48.3353 42.2431L48.7802 34.4401H57.1804L55.8735 42.2431H48.3353ZM25.4332 34.4401L26.758 42.2431H19.2584L17.0406 34.4401H25.4332ZM22.7643 54.5767H28.8521L30.1769 62.3797H24.9823L22.7643 54.5767ZM60.2022 61.0452C59.9807 61.8434 59.324 62.3797 58.5682 62.3797H54.5867L55.8936 54.5767H61.9978L60.2022 61.0452ZM65.4214 42.2431H57.9592L59.2661 34.4401H67.5876L65.4214 42.2431Z" fill="#E39A3B"/>
<mask id="mask0" mask-type="alpha" maskUnits="userSpaceOnUse" x="24" y="88" width="3" height="3">
<path d="M25.5677 88.1293C25.0014 88.1293 24.543 88.6363 24.543 89.262C24.543 89.8877 25.0028 90.3947 25.5691 90.3947C26.1355 90.3947 26.5945 89.8877 26.5945 89.262C26.5945 88.6363 26.1355 88.1293 25.5691 88.1293H25.5677Z" fill="#E39A3B"/>
</mask>
<g mask="url(#mask0)">
</g>
</svg>
