<svg width="70" height="70" viewBox="0 0 70 70" fill="none" xmlns="http://www.w3.org/2000/svg">
<path d="M61.6599 49.5361H18.2231C16.907 49.5361 15.8362 48.3504 15.8362 46.8931C15.8362 45.4359 16.907 44.2502 18.2231 44.2502H30.8053C31.3717 44.2502 31.8306 43.7432 31.8306 43.1175C31.8306 42.4918 31.3717 41.9848 30.8053 41.9848H18.2231C15.7762 41.9848 13.7855 44.1866 13.7855 46.8931C13.7855 49.5996 15.7762 51.8014 18.2231 51.8014H61.6599C62.2293 51.8014 62.7131 52.2843 62.7384 52.8778C62.752 53.1927 62.6516 53.4909 62.4562 53.7172C62.2614 53.9426 61.9992 54.0668 61.7178 54.0668H18.1608C16.901 54.0668 15.6801 53.6669 14.63 52.9101C14.1555 52.5682 13.5204 52.7157 13.211 53.2399C12.9014 53.7638 13.0351 54.4656 13.5096 54.8074C14.8938 55.8049 16.5022 56.3323 18.1608 56.3323H18.8122C19.0885 58.2478 20.0537 59.9117 21.4173 61.0059C20.7863 61.9611 20.4394 63.1174 20.4394 64.3366C20.4394 67.4595 22.7393 70 25.5663 70C28.3934 70 30.6933 67.4595 30.6933 64.3366C30.6933 63.1195 30.3456 61.9627 29.7144 61.0067C31.0786 59.9125 32.0442 58.2482 32.3205 56.3323H47.5229C47.7992 58.2481 48.7647 59.9122 50.1288 61.0064C49.4975 61.9622 49.1503 63.1187 49.1503 64.3366C49.1503 67.4595 51.4501 70 54.2772 70C57.1043 70 59.4041 67.4595 59.4041 64.3366C59.4041 63.1184 59.0569 61.9619 58.4258 61.0062C59.7897 59.912 60.7552 58.2479 61.0315 56.3323H61.7178C62.553 56.3323 63.3631 55.9492 63.9402 55.281C64.5263 54.6023 64.8271 53.711 64.7872 52.7715C64.7096 50.957 63.336 49.5361 61.6599 49.5361ZM28.6425 64.3365C28.6425 66.2101 27.2625 67.7345 25.5663 67.7345C23.8702 67.7345 22.4902 66.2101 22.4902 64.3365C22.4902 63.4771 22.7771 62.6694 23.2912 62.0484C23.9022 62.2593 24.5516 62.3731 25.2245 62.3731H25.9081C26.5809 62.3731 27.2301 62.2594 27.8408 62.0487C28.3547 62.6702 28.6425 63.4785 28.6425 64.3365ZM25.9081 60.1078H25.2245C23.1274 60.1078 21.3662 58.4941 20.9019 56.3322H30.2308C29.7665 58.4942 28.0053 60.1078 25.9081 60.1078ZM57.3534 64.3365C57.3534 66.2101 55.9733 67.7345 54.2772 67.7345C52.5811 67.7345 51.201 66.2101 51.201 64.3365C51.201 63.478 51.4884 62.6699 52.0025 62.0486C52.6133 62.2594 53.2626 62.3731 53.9354 62.3731H54.619C55.2919 62.3731 55.9412 62.2594 56.5521 62.0486C57.0661 62.6699 57.3534 63.4779 57.3534 64.3365ZM54.619 60.1078H53.9354C51.8383 60.1078 50.0771 58.4941 49.6128 56.3322H58.9416C58.4773 58.4942 56.7161 60.1078 54.619 60.1078Z" fill="#E39A3B"/>
<path d="M69.799 7.70844C69.6055 7.41968 69.2997 7.24918 68.9744 7.24918C61.6083 7.24918 22.7977 7.24918 16.3966 7.24918L15.0124 2.37924C14.608 0.956136 13.43 0 12.0811 0H3.07275C1.3784 0 0 1.52444 0 3.39805C0 5.27166 1.3784 6.7961 3.07275 6.7961H9.82595L12.0546 14.6365C12.2241 15.2332 12.7993 15.5656 13.34 15.3778C13.8802 15.1905 14.1807 14.5547 14.011 13.9578L11.5569 5.32407C11.4228 4.85196 11.0266 4.53074 10.5787 4.53074H3.07275C2.50933 4.53074 2.05078 4.02269 2.05078 3.39805C2.05078 2.77341 2.50933 2.26537 3.07275 2.26537H12.0811C12.5294 2.26537 12.9213 2.58373 13.0559 3.05779L22.8329 37.4541H20.69L15.4284 18.9439C15.2589 18.3472 14.6836 18.0148 14.143 18.2027C13.6028 18.39 13.3023 19.0258 13.472 19.6226L18.5407 37.4541H18.161C13.4562 37.4541 9.62867 41.6884 9.62867 46.8931C9.62867 48.0214 9.80709 49.1256 10.159 50.1752C10.3121 50.632 10.704 50.9147 11.1207 50.9147C11.2389 50.9147 11.3592 50.8921 11.4767 50.8439C12.0078 50.6267 12.2788 49.9749 12.0822 49.3883C11.8151 48.5914 11.6796 47.7517 11.6796 46.893C11.6796 42.9375 14.5873 39.7193 18.1611 39.7193H46.6463C47.2158 39.7193 47.6996 40.2021 47.7248 40.7956C47.7384 41.1107 47.638 41.4088 47.4427 41.635C47.2478 41.8605 46.9857 41.9847 46.7044 41.9847H35.5909C35.0245 41.9847 34.5656 42.4916 34.5656 43.1173C34.5656 43.743 35.0245 44.25 35.5909 44.25H46.7044C47.5394 44.25 48.3495 43.8669 48.9265 43.1987C49.5127 42.52 49.8135 41.6287 49.7736 40.6893C49.7591 40.35 49.6992 40.0244 49.6006 39.7193H58.5687C60.2313 39.7193 61.676 38.5395 62.1634 36.7837L69.9553 8.71396C70.0501 8.37053 69.9923 7.99735 69.799 7.70844ZM62.6266 27.3857H56.273L57.5798 19.5829H64.7926L62.6266 27.3857ZM54.1874 27.3857H47.7612L48.2061 19.5829H55.4941L54.1874 27.3857ZM47.1873 37.4541L47.6321 29.6511H53.808L52.5011 37.4541H47.1873ZM39.5876 37.4541L39.1366 29.6511H45.5773L45.1324 37.4541H39.5876ZM32.2634 37.4541L30.9386 29.6511H37.0819L37.5329 37.4541H32.2634ZM19.9025 19.5829H27.1427L28.4675 27.3857H22.1205L19.9025 19.5829ZM29.229 19.5829H36.4997L36.9507 27.3857H30.5538L29.229 19.5829ZM35.9178 9.51454L36.3689 17.3175H28.8444L27.5196 9.51454H35.9178ZM38.4236 17.3175L37.9726 9.51454H46.7252L46.2803 17.3175H38.4236ZM46.1512 19.5829L45.7063 27.3857H39.0056L38.5546 19.5829H46.1512ZM48.3353 17.3175L48.7802 9.51454H57.1804L55.8735 17.3175H48.3353ZM25.4332 9.51454L26.758 17.3175H19.2584L17.0406 9.51454H25.4332ZM22.7643 29.6511H28.8521L30.1769 37.4541H24.9823L22.7643 29.6511ZM60.2022 36.1196C59.9807 36.9178 59.324 37.4541 58.5682 37.4541H54.5867L55.8936 29.6511H61.9978L60.2022 36.1196ZM65.4214 17.3175H57.9592L59.2661 9.51454H67.5876L65.4214 17.3175Z" fill="#E39A3B"/>
<mask id="mask0" mask-type="alpha" maskUnits="userSpaceOnUse" x="24" y="63" width="3" height="3">
<path d="M25.5677 63.2038C25.0014 63.2038 24.543 63.7108 24.543 64.3364C24.543 64.9621 25.0028 65.4691 25.5691 65.4691C26.1355 65.4691 26.5945 64.9621 26.5945 64.3364C26.5945 63.7108 26.1355 63.2038 25.5691 63.2038H25.5677Z" fill="#E39A3B"/>
</mask>
<g mask="url(#mask0)">
</g>
</svg>
