<svg width="237" height="48" viewBox="0 0 237 48" fill="none" xmlns="http://www.w3.org/2000/svg">
<rect width="237" height="48" rx="24" fill="#FFB758"/>
<path d="M99.9805 32V14.9375H105.559C107.41 14.9375 108.801 15.3203 109.73 16.0859C110.668 16.8516 111.137 17.9844 111.137 19.4844C111.137 20.2812 110.91 20.9883 110.457 21.6055C110.004 22.2148 109.387 22.6875 108.605 23.0234C109.527 23.2812 110.254 23.7734 110.785 24.5C111.324 25.2188 111.594 26.0781 111.594 27.0781C111.594 28.6094 111.098 29.8125 110.105 30.6875C109.113 31.5625 107.711 32 105.898 32H99.9805ZM102.23 24.0195V30.1602H105.945C106.992 30.1602 107.816 29.8906 108.418 29.3516C109.027 28.8047 109.332 28.0547 109.332 27.1016C109.332 25.0469 108.215 24.0195 105.98 24.0195H102.23ZM102.23 22.2148H105.629C106.613 22.2148 107.398 21.9688 107.984 21.4766C108.578 20.9844 108.875 20.3164 108.875 19.4727C108.875 18.5352 108.602 17.8555 108.055 17.4336C107.508 17.0039 106.676 16.7891 105.559 16.7891H102.23V22.2148ZM122.422 30.7461C121.578 31.7383 120.34 32.2344 118.707 32.2344C117.355 32.2344 116.324 31.8438 115.613 31.0625C114.91 30.2734 114.555 29.1094 114.547 27.5703V19.3203H116.715V27.5117C116.715 29.4336 117.496 30.3945 119.059 30.3945C120.715 30.3945 121.816 29.7773 122.363 28.543V19.3203H124.531V32H122.469L122.422 30.7461ZM131.984 28.8242L134.938 19.3203H137.258L132.16 33.957C131.371 36.0664 130.117 37.1211 128.398 37.1211L127.988 37.0859L127.18 36.9336V35.1758L127.766 35.2227C128.5 35.2227 129.07 35.0742 129.477 34.7773C129.891 34.4805 130.23 33.9375 130.496 33.1484L130.977 31.8594L126.453 19.3203H128.82L131.984 28.8242Z" fill="white"/>
</svg>
