<svg width="25" height="24" viewBox="0 0 25 24" fill="none" xmlns="http://www.w3.org/2000/svg">
<path d="M23.75 0H1.25C0.91848 0 0.600537 0.148739 0.366116 0.413496C0.131696 0.678254 0 1.03734 0 1.41176V21.1765C0 21.9253 0.263392 22.6434 0.732232 23.173C1.20107 23.7025 1.83696 24 2.5 24H22.5C23.163 24 23.7989 23.7025 24.2677 23.173C24.7366 22.6434 25 21.9253 25 21.1765V1.41176C25 1.03734 24.8682 0.678254 24.6339 0.413496C24.3995 0.148739 24.0815 0 23.75 0ZM12.5 12.7059C8.36375 12.7059 5 8.90682 5 4.23529H7.5C7.5 7.34965 9.7425 9.88235 12.5 9.88235C15.2575 9.88235 17.5 7.34965 17.5 4.23529H20C20 8.90682 16.6362 12.7059 12.5 12.7059Z" fill="#E39A3B"/>
</svg>
